:SAMPLES-PER-SECOND 30
:FULLY-SPECIFIED
:DEGREES
1310
root  -2.82767 35.8979 23.6652 176.747 -1.74342 179.289
RightUpLeg  -11.4507 13.9313 -29.873
RightLeg  19.0508 -2.69426 -1.86044
RightFoot  -10.2115 0.0172718 -6.0164
RightToes  1.33877e-009 0 -3.6325e-017
Spine  21.4291 -1.78749 4.23961
Spine1  9.60883 -0.842192 -1.02967
HEad  -20.745 13.996 -13.7863
LeftShoulder1  0.393987 2.26921 -25.6987
LeftArm  -8.84478 -13.6801 -34.1187
LeftForeArm  28.9267 -75.8719 -51.2524
LeftHand  -0.129342 -0.126059 2.75376
RightShoulder  -0.0780037 -3.73909 23.5053
RightArm  -15.1201 -8.64138 34.7459
RightForeArm  100.18 74.5537 132.548
RightHand  -0.4677 3.01784 -6.68761
LeftUpLeg  -23.6105 17.7562 15.5533
LeftLeg  39.2276 -4.32839 -3.40497
LeftFoot  -7.1277 0.330003 -7.81783
LeftToes  -1.45701e-009 4.75788e-011 -4.21586e-011
1311
root  -3.50346 36.2399 23.6806 177.607 -1.89977 179.667
RightUpLeg  -12.501 9.57764 -27.6331
RightLeg  21.472 -0.712247 -0.436719
RightFoot  -12.0204 -0.0717804 4.05029
RightToes  1.33877e-009 0 -3.6325e-017
Spine  21.0376 -1.38306 3.28241
Spine1  9.38865 -0.444837 -2.03893
HEad  -21.7934 13.3881 -14.6487
LeftShoulder1  0.351765 2.40026 -25.6538
LeftArm  -9.09838 -13.2667 -33.7813
LeftForeArm  30.2399 -76.0678 -52.192
LeftHand  -0.0871164 0.156555 1.93275
RightShoulder  -0.0759337 -3.7288 23.9283
RightArm  -15.0977 -9.80469 36.3155
RightForeArm  100.957 74.8962 131.466
RightHand  -0.408777 2.95231 -5.91423
LeftUpLeg  -24.0724 16.3565 14.3041
LeftLeg  38.1286 -2.94109 -2.10691
LeftFoot  -6.98373 0.309863 -7.05905
LeftToes  -1.45701e-009 4.75788e-011 -4.21586e-011
1312
root  -4.19384 36.8262 23.7148 177.843 -1.73615 -179.723
RightUpLeg  -13.5531 3.95211 -23.342
RightLeg  25.6894 1.8858 0.728528
RightFoot  -12.4821 -0.0540344 3.05368
RightToes  1.33877e-009 0 -3.6325e-017
Spine  20.719 -1.10406 2.96179
Spine1  9.89529 -0.1741 -2.12562
HEad  -22.4107 13.3902 -14.8903
LeftShoulder1  0.335597 2.43772 -25.2542
LeftArm  -9.98592 -12.4112 -33.2968
LeftForeArm  30.4342 -76.1217 -52.5298
LeftHand  -0.0629676 0.146428 1.38868
RightShoulder  -0.0818298 -3.74152 24.5059
RightArm  -13.7996 -9.24847 37.0015
RightForeArm  98.1026 75.676 127.827
RightHand  -0.428819 3.30432 -5.96402
LeftUpLeg  -22.7522 15.43 13.5016
LeftLeg  35.1482 -1.89838 -1.06483
LeftFoot  -6.05574 0.31273 -5.99023
LeftToes  -1.45701e-009 4.75788e-011 -4.21586e-011
1313
root  -4.75396 37.3925 23.7487 177.979 -1.30337 -179.212
RightUpLeg  -14.6835 0.717517 -18.4182
RightLeg  29.9255 0.33112 -0.0321329
RightFoot  -12.5925 -0.0540716 2.88616
RightToes  1.33877e-009 0 -3.6325e-017
Spine  20.9051 -0.83936 2.52089
Spine1  9.35977 0.0717656 -2.21856
HEad  -21.9824 13.942 -14.9283
LeftShoulder1  0.335972 2.4262 -24.974
LeftArm  -10.992 -10.5785 -32.3501
LeftForeArm  31.4938 -76.3882 -54.2862
LeftHand  -0.0784215 0.229164 1.74707
RightShoulder  -0.134881 -3.90666 25.0377
RightArm  -11.8338 -8.07002 37.6377
RightForeArm  93.3473 76.5996 122.458
RightHand  -0.436908 3.27238 -6.09349
LeftUpLeg  -20.928 15.5168 12.9432
LeftLeg  31.5898 -1.41252 -0.583809
LeftFoot  -4.89576 0.33113 -5.34656
LeftToes  -1.45701e-009 4.75788e-011 -4.21586e-011
1314
root  -5.24252 37.9437 23.7241 178.608 -0.912811 -179.076
RightUpLeg  -15.8875 -1.59891 -13.4428
RightLeg  32.7796 -0.544439 -0.613134
RightFoot  -12.9801 -0.0542293 2.356
RightToes  1.33877e-009 0 -3.6325e-017
Spine  20.1892 -0.653649 1.48464
Spine1  8.94591 -0.0521237 -1.71656
HEad  -21.5505 14.6934 -14.5164
LeftShoulder1  0.238028 2.75453 -25.5005
LeftArm  -11.8802 -8.45589 -30.6143
LeftForeArm  34.5369 -76.8638 -57.3709
LeftHand  -0.0654834 0.748368 1.54676
RightShoulder  -0.0604533 -3.67499 24.2819
RightArm  -9.67365 -7.36891 38.7046
RightForeArm  89.3058 77.0179 119.068
RightHand  -0.488401 3.1963 -6.83481
LeftUpLeg  -19.3231 15.2585 12.0191
LeftLeg  27.541 -0.545435 0.0305438
LeftFoot  -3.54455 0.373308 -5.17013
LeftToes  -1.45701e-009 4.75788e-011 -4.21586e-011
